<svg width="818" height="835" viewBox="0 0 818 835" fill="none" xmlns="http://www.w3.org/2000/svg">
<path d="M8.88987 522.311C3.93519 482.855 28.7137 445.749 67.0567 435.206L705.186 259.745C759.182 244.898 811.331 288.694 806.037 344.444L759.431 835.272L48.2929 836.093L8.88987 522.311Z" fill="#47230A"/>
<path d="M667.107 271.033C686.743 342.651 677.126 419.135 640.37 483.662C603.614 548.188 542.731 595.47 471.113 615.107C399.496 634.743 323.011 625.126 258.485 588.37C193.959 551.614 146.676 490.73 127.04 419.113L397.073 345.073L667.107 271.033Z" fill="#61371B"/>
<path d="M126.571 418.686C106.919 347.073 116.52 270.587 153.262 206.052C190.004 141.518 250.877 94.2229 322.491 74.571C394.104 54.919 470.59 64.52 535.125 101.262C599.659 138.004 646.954 198.877 666.606 270.491L396.588 344.589L126.571 418.686Z" fill="#FCFCFC"/>
</svg>
