<?xml version="1.0" standalone="no"?>
<!DOCTYPE svg PUBLIC "-//W3C//DTD SVG 20010904//EN"
 "http://www.w3.org/TR/2001/REC-SVG-20010904/DTD/svg10.dtd">
<svg version="1.0" xmlns="http://www.w3.org/2000/svg"
 width="980.000000pt" height="982.000000pt" viewBox="0 0 980.000000 982.000000"
 preserveAspectRatio="xMidYMid meet">

<g transform="translate(0.000000,982.000000) scale(0.100000,-0.100000)"
fill="#F7EACF" stroke="none">
<path d="M6270 9804 c-617 -46 -1212 -192 -1825 -449 -1596 -670 -3042 -2040
-3820 -3620 -339 -689 -536 -1355 -607 -2055 -16 -166 -16 -651 0 -810 30
-281 88 -556 169 -799 49 -147 149 -381 206 -482 l36 -63 11 29 c27 71 78 181
151 325 614 1217 1783 2212 3404 2897 179 76 362 147 615 238 1246 448 2179
1014 2955 1790 583 584 1024 1257 1301 1983 l45 117 -78 75 c-286 276 -693
515 -1104 648 -234 77 -454 125 -719 157 -121 15 -618 28 -740 19z"/>
<path d="M9314 8278 c-57 -129 -226 -457 -305 -593 -512 -876 -1255 -1648
-2164 -2250 -590 -390 -1225 -703 -1965 -970 -507 -182 -783 -298 -1170 -492
-319 -159 -534 -282 -785 -448 -952 -628 -1623 -1411 -1958 -2285 -30 -80 -66
-181 -78 -224 l-23 -79 90 -86 c381 -365 902 -634 1464 -755 852 -184 1834
-72 2820 321 1814 724 3426 2335 4150 4148 286 715 426 1438 407 2095 -7 237
-18 346 -53 560 -58 354 -179 719 -331 1000 -73 135 -67 132 -99 58z"/>
</g>
</svg>
