<?xml version="1.0" standalone="no"?>
<!DOCTYPE svg PUBLIC "-//W3C//DTD SVG 20010904//EN"
 "http://www.w3.org/TR/2001/REC-SVG-20010904/DTD/svg10.dtd">
<svg version="1.0" xmlns="http://www.w3.org/2000/svg"
 width="512.000000pt" height="512.000000pt" viewBox="0 0 512.000000 512.000000"
 preserveAspectRatio="xMidYMid meet">

<g transform="translate(0.000000,512.000000) scale(0.100000,-0.100000)"
fill="#F7EACF" stroke="none">
<path d="M3745 5114 c-192 -45 -262 -81 -366 -185 -63 -62 -85 -93 -122 -170
-60 -124 -79 -214 -79 -364 -1 -193 41 -356 139 -546 281 -546 885 -827 1308
-611 99 51 218 172 268 273 60 123 80 213 81 369 1 147 -11 226 -55 361 -106
330 -380 645 -681 784 -126 58 -239 86 -363 90 -60 2 -119 2 -130 -1z m-45
-274 c0 -223 80 -339 381 -550 328 -229 421 -316 487 -450 35 -71 37 -80 37
-175 0 -92 -3 -105 -32 -165 -17 -36 -40 -76 -51 -89 l-19 -24 -5 64 c-10 124
-94 265 -216 363 -37 29 -122 88 -190 130 -154 95 -226 150 -319 244 -207 209
-252 451 -125 670 20 34 40 62 44 62 4 0 8 -36 8 -80z"/>
<path d="M1030 4974 c-237 -23 -423 -112 -570 -271 -153 -167 -250 -381 -297
-653 -23 -135 -23 -438 0 -590 64 -407 231 -802 480 -1130 127 -166 356 -381
495 -463 l30 -17 71 135 c112 214 230 380 384 541 104 109 103 85 8 218 -31
44 -129 154 -217 246 -248 256 -395 453 -489 653 -83 176 -115 306 -115 466 0
212 77 398 225 541 56 54 57 54 52 25 -35 -215 -39 -257 -34 -345 16 -262 112
-423 583 -965 158 -183 252 -306 315 -415 l51 -88 81 53 c156 100 341 182 512
225 128 33 120 12 79 199 -141 637 -525 1191 -1020 1474 -193 110 -452 177
-624 161z"/>
<path d="M3055 3073 c-254 -21 -571 -137 -805 -294 -509 -343 -889 -892 -1006
-1453 -34 -165 -43 -392 -20 -530 63 -384 275 -643 613 -749 278 -88 601 -48
948 117 225 108 405 236 596 426 473 469 731 1074 688 1608 -22 273 -117 482
-295 651 -179 170 -431 248 -719 224z m455 -533 c79 -12 200 -49 200 -61 0 -5
-7 -9 -16 -9 -34 0 -231 -73 -307 -113 -227 -120 -343 -304 -609 -967 -127
-318 -222 -492 -346 -639 -159 -187 -383 -287 -588 -262 -72 9 -187 42 -207
61 -4 3 21 14 55 24 147 40 290 153 410 321 91 128 150 254 238 511 195 569
419 897 715 1051 154 80 301 107 455 83z"/>
</g>
</svg>
